/* XPM */
static char * debug_xpm[] = {
"32 32 183 2",
"  	c #00FFFF",
". 	c #000000",
"+ 	c #11FDFF",
"@ 	c #13FFFF",
"# 	c #17FFFF",
"$ 	c #1CFFFF",
"% 	c #24FFFF",
"& 	c #33FFFF",
"* 	c #55FFFF",
"= 	c #FFFFFF",
"- 	c #11FEFF",
"; 	c #20DFFF",
"> 	c #22ECFF",
", 	c #24FEFF",
"' 	c #24FDFF",
") 	c #27FFFF",
"! 	c #2AFFFF",
"~ 	c #2EFFFF",
"{ 	c #38FFFF",
"] 	c #3FFFFF",
"^ 	c #48FFFF",
"/ 	c #66FFFF",
"( 	c #7FFFFF",
"_ 	c #AAFFFF",
": 	c #FFFFED",
"< 	c #A9FFFF",
"[ 	c #33DBFF",
"} 	c #3AFDFF",
"| 	c #45FFFF",
"1 	c #6DFFFF",
"2 	c #99FFFF",
"3 	c #FFFFDC",
"4 	c #3AFEFF",
"5 	c #40BFFF",
"6 	c #44CAFF",
"7 	c #48D9FF",
"8 	c #4EEAFF",
"9 	c #55FEFF",
"0 	c #55FDFF",
"a 	c #5CFFFF",
"b 	c #71FFFF",
"c 	c #91FFFF",
"d 	c #CCFFFF",
"e 	c #FFFFEB",
"f 	c #FFFFDA",
"g 	c #FFFFCB",
"h 	c #CBFFFF",
"i 	c #55B9FF",
"j 	c #62D6FF",
"k 	c #73FDFF",
"l 	c #8DFFFF",
"m 	c #B6FFFF",
"n 	c #FFFFD7",
"o 	c #FFFFBA",
"p 	c #73FEFF",
"q 	c #609FFF",
"r 	c #66A8FF",
"s 	c #6DB5FF",
"t 	c #75C2FF",
"u 	c #7FD3FF",
"v 	c #8BE6FF",
"w 	c #99FEFF",
"x 	c #99FDFF",
"y 	c #BFFFFF",
"z 	c #DAFFFF",
"A 	c #FFFFE7",
"B 	c #FFFFD4",
"C 	c #FFFFC3",
"D 	c #FFFFB5",
"E 	c #FFFFA9",
"F 	c #7797FF",
"G 	c #89AFFF",
"H 	c #A2CFFF",
"I 	c #C6FDFF",
"J 	c #FFFFD0",
"K 	c #FFFFB0",
"L 	c #FFFF98",
"M 	c #C6FEFF",
"N 	c #807FFF",
"O 	c #8886FF",
"P 	c #9190FF",
"Q 	c #9C9BFF",
"R 	c #AAA8FF",
"S 	c #B9B8FF",
"T 	c #CCCAFF",
"U 	c #E2E0FF",
"V 	c #FFFEFF",
"W 	c #FFFDFF",
"X 	c #FFFFE2",
"Y 	c #FFFFB9",
"Z 	c #FFFF9C",
"` 	c #FFFF91",
" .	c #FFFF87",
"..	c #9975FF",
"+.	c #B088FF",
"@.	c #D0A0FF",
"#.	c #FFC4FF",
"$.	c #FFFCC5",
"%.	c #FFFFA1",
"&.	c #FFFF88",
"*.	c #FFFF76",
"=.	c #FFFDC5",
"-.	c #A05FFF",
";.	c #AA64FF",
">.	c #B66CFF",
",.	c #C474FF",
"'.	c #D47EFF",
").	c #E789FF",
"!.	c #FF97FF",
"~.	c #FFA8DA",
"{.	c #FFBDBE",
"].	c #FFD8A9",
"^.	c #FFFD98",
"/.	c #FFFC98",
"(.	c #FFFF8A",
"_.	c #FFFF7E",
":.	c #FFFF75",
"<.	c #FFFF6C",
"[.	c #FFFF65",
"}.	c #BB53FF",
"|.	c #D760FF",
"1.	c #FF72FF",
"2.	c #FF8BB5",
"3.	c #FFB38C",
"4.	c #FFFB73",
"5.	c #FFFF61",
"6.	c #FFFF54",
"7.	c #FFFC73",
"8.	c #C03FFF",
"9.	c #CC42FF",
"0.	c #DA47FF",
"a.	c #EB4DFF",
"b.	c #FF53FF",
"c.	c #FF5BCA",
"d.	c #FF5BCB",
"e.	c #FF64A9",
"f.	c #FF6F90",
"g.	c #FF7D7E",
"h.	c #FF8F70",
"i.	c #FFA765",
"j.	c #FFC85B",
"k.	c #FFC75B",
"l.	c #FFFC54",
"m.	c #FFFB54",
"n.	c #FFFF4D",
"o.	c #FFFF48",
"p.	c #FFFF43",
"q.	c #DD31FF",
"r.	c #FF39FF",
"s.	c #FF4497",
"t.	c #FF536B",
"u.	c #FF6B53",
"v.	c #FF9544",
"w.	c #FFF939",
"x.	c #FFFF32",
"y.	c #FFFA39",
"z.	c #E01FFF",
"A.	c #EE20FF",
"B.	c #FF23FF",
"C.	c #FF26A7",
"D.	c #FF26A8",
"E.	c #FF297D",
"F.	c #FF2C64",
"G.	c #FF3153",
"H.	c #FF3647",
"I.	c #FF3D3E",
"J.	c #FF4637",
"K.	c #FF5231",
"L.	c #FF622D",
"M.	c #FF7B29",
"N.	c #FFA426",
"O.	c #FFA326",
"P.	c #FFF823",
"Q.	c #FFF723",
"R.	c #FFFF21",
"S.	c #FF0FFF",
"T.	c #FF1251",
"U.	c #FF1530",
"V.	c #FF1A22",
"W.	c #FF221A",
"X.	c #FF2F15",
"Y.	c #FF4F12",
"Z.	c #FFEF10",
"                                                                ",
"                                                                ",
". . + + . . @ @ . . # # . . $ $ . . % % . . & & . . * * . . = = ",
". . - - . . @ @ . . # # . . $ $ . . % % . . & & . . * * . . = = ",
"; ; > > , ' ) ) ! ! ~ ~ & & { { ] ] ^ ^ * * / / ( ( _ _ = = : : ",
"; ; > > , ' ) ) ! ! ~ ~ & & { { ] ] ^ ^ * * / / ( ( _ < = = : : ",
". . [ [ . . } } . . | | . . * * . . 1 1 . . 2 2 . . = = . . 3 3 ",
". . [ [ . . 4 4 . . | | . . * * . . 1 1 . . 2 2 . . = = . . 3 3 ",
"5 5 6 6 7 7 8 8 9 0 a a / / b b ( ( c c _ _ d d = = e e f f g g ",
"5 5 6 6 7 7 8 8 9 0 a a / / b b ( ( c c _ _ d h = = e e f f g g ",
". . i i . . j j . . k k . . l l . . m m . . = = . . n n . . o o ",
". . i i . . j j . . p p . . l l . . m m . . = = . . n n . . o o ",
"q q r r s s t t u u v v w x _ _ y y z z = = A A B B C C D D E E ",
"q q r r s s t t u u v v w x _ _ y y z z = = A A B B C C D D E E ",
". . F F . . G G . . H H . . I I . . = = . . J J . . K K . . L L ",
". . F F . . G G . . H H . . M M . . = = . . J J . . K K . . L L ",
"N N O O P P Q Q R R S S T T U U V W X X g g Y Y E E Z Z ` `  . .",
"N N O O P P Q Q R R S S T T U U V W X X g g Y Y E E Z Z ` `  . .",
". . ..... . +.+.. . @.@.. . #.#.. . $.$.. . %.%.. . &.&.. . *.*.",
". . ..... . +.+.. . @.@.. . #.#.. . =.=.. . %.%.. . &.&.. . *.*.",
"-.-.;.;.>.>.,.,.'.'.).).!.!.~.~.{.{.].].^./.(.(._._.:.:.<.<.[.[.",
"-.-.;.;.>.>.,.,.'.'.).).!.!.~.~.{.{.].].^./.(.(._._.:.:.<.<.[.[.",
". . }.}.. . |.|.. . 1.1.. . 2.2.. . 3.3.. . 4.4.. . 5.5.. . 6.6.",
". . }.}.. . |.|.. . 1.1.. . 2.2.. . 3.3.. . 7.7.. . 5.5.. . 6.6.",
"8.8.9.9.0.0.a.a.b.b.c.d.e.e.f.f.g.g.h.h.i.i.j.k.l.m.n.n.o.o.p.p.",
"8.8.9.9.0.0.a.a.b.b.d.d.e.e.f.f.g.g.h.h.i.i.j.j.l.m.n.n.o.o.p.p.",
". . q.q.. . r.r.. . s.s.. . t.t.. . u.u.. . v.v.. . w.w.. . x.x.",
". . q.q.. . r.r.. . s.s.. . t.t.. . u.u.. . v.v.. . y.y.. . x.x.",
"z.z.A.A.B.B.C.D.E.E.F.F.G.G.H.H.I.I.J.J.K.K.L.L.M.M.N.O.P.Q.R.R.",
"z.z.A.A.B.B.D.D.E.E.F.F.G.G.H.H.I.I.J.J.K.K.L.L.M.M.N.N.P.Q.R.R.",
". . S.S.. . T.T.. . U.U.. . V.V.. . W.W.. . X.X.. . Y.Y.. . Z.Z.",
". . S.S.. . T.T.. . U.U.. . V.V.. . W.W.. . X.X.. . Y.Y.. . Z.Z."};
