/* XPM */
static char * wall2_xpm[] = {
"32 32 18 1",
" 	c #000070",
".	c #383838",
"+	c #000098",
"@	c #000088",
"#	c #000064",
"$	c #00004C",
"%	c #202020",
"&	c #00007C",
"*	c #000000",
"=	c #0000A4",
"-	c #0000B0",
";	c #000058",
">	c #0000BC",
",	c #000040",
"'	c #0000FC",
")	c #0000D4",
"!	c #4040FC",
"~	c #2C2C2C",
"              .      .      .  .",
"++++@@ @ +  #$%+@+@&&*+==--@*=@*",
"++@@ @&;#;#;$;%@&@&#;*+=>=@&*# *",
"+@=+@+@#$;  $$%+& &&;*+--+= * $*",
"+ +& #&&;&##;$%@&&+#$*+>=&+#****",
"@&&#+#$$;## $$%&#&#;;*+-+&&;*==*",
"@@;&;;;##,,#$$% #;#$;*+-+@&$*+#*",
"@@;;;$;;;$$$$$%;;$$$$*@=-+#$*#$*",
"-++++++%%%%%%%%%%%%%%%@--@ $*>>>",
"=@+&@ @*;@@++&#;%#+&&;@+-@ $*>'=",
"&== @@ *=== ##$#*&+#$;&=#&#;*>==",
"&&+ @#$*+=>&#;$#*#;$$; +&#;$*>-+",
"=&@@ #$*@&@##@  *+-+@*@+@#$$*>=>",
"@&=+ &$*& =@&= #*@+##*+=+&;;*>>+",
"&+@+#;$* &=++&  *+@#&*+@&&$$*>>+",
"&&+;$$,*;  ++#;$*@+##*+-@#$$*>=+",
"&@ ## $*%$$$$$$$*@; ;*+=+@;;*>>&",
"@&  ;$;*%;;;#;;$%&#$$*+-@@&#*>>@",
"&#; ,,;*% @@##&$%+@;$*++@#;;*=@&",
"&& $$,$*%@@ #;#$%@@ ;*+@@;$$*=@&",
"********%@ $;$#$%@ #;*@@$$;$****",
"%+------==+@%%%%%@#$$*&;$$;#*# %",
"%-==--+-=&;$*$& % ;;;*%%%%%%%%%%",
"%++=@@+& @ $*;=&%*****%--=+=+=+*",
"%-+=+= ++;;;*##$%++==#%-=-> &@&*",
"%+@+=  +  ; *%**%+&#;$%-)++ +&;*",
"%++!@+&&& ,;*@@+++@@&#%=@>@@&@;*",
"%+==& ;;##,$*@&&+=&&#$%-@& @@#$*",
"%+=& +#$ $$$*+&@ @+&$;%==&$ $,;*",
"%+&+&&@#  $$*@& & &#$$%@@@ ##$,*",
"%+&&;;;;$$$$*&&##;#$;$%  @#$$$$*",
".           .         .        ~"};
